<?xml version="1.0" encoding="UTF-8"?>
<svg xmlns="http://www.w3.org/2000/svg" version="1.1" viewBox="0 0 64 64">
  <!-- Generator: Adobe Illustrator 29.1.0, SVG Export Plug-In . SVG Version: 2.1.0 Build 142)  -->
  <defs>
    <style>
      .st0 {
        fill: #fff;
      }
    </style>
  </defs>
  <g id="Layer_1" image-rendering="optimizeQuality" shape-rendering="geometricPrecision" text-rendering="geometricPrecision">
    <path class="st0" d="M18.6,12c1.9,0,3.6.2,5.1.5,1.6.3,2.9.9,4,1.6,1.1.8,1.9,1.8,2.6,3,.6,1.2.9,2.8.9,4.6s-.4,3.6-1.4,5c-.9,1.3-2.2,2.4-4,3.3,2.4.7,4.2,1.9,5.4,3.7,1.2,1.8,1.8,3.9,1.8,6.3s-.4,3.7-1.1,5.2c-.8,1.5-1.8,2.6-3.1,3.6-1.3.9-2.8,1.6-4.5,2-1.7.4-3.4.7-5.1.7H0V12h18.6s0,0,0,0h0ZM41.8,15.1h16v3.9h-16v-3.9s0,0,0,0ZM45.3,44.5c1.2,1.1,2.9,1.7,5.1,1.7s3-.4,4.1-1.2c1.1-.8,1.8-1.6,2.1-2.5h6.9c-1.1,3.4-2.8,5.9-5.1,7.4-2.3,1.5-5,2.2-8.3,2.2s-4.3-.4-6.1-1.1c-1.8-.7-3.3-1.7-4.6-3.1-1.2-1.3-2.2-2.9-2.9-4.7-.7-1.8-1-3.9-1-6.1s.4-4.1,1-6c.7-1.9,1.7-3.4,3-4.8,1.3-1.3,2.8-2.4,4.6-3.2,1.8-.8,3.8-1.2,6-1.2s4.5.5,6.3,1.4c1.8.9,3.3,2.2,4.4,3.8,1.2,1.6,2,3.4,2.5,5.4.5,2,.7,4.1.5,6.4h-20.6c0,2.2.8,4.4,1.9,5.5,0,0,0,0,0,0ZM54.3,29.5c-.9-1-2.5-1.6-4.4-1.6s-2.3.2-3.1.6c-.8.4-1.5.9-2,1.6-.5.6-.9,1.3-1,2-.2.7-.3,1.3-.4,1.9h12.8c-.2-2-.9-3.5-1.8-4.5h0s0,0,0,0ZM17.4,27.8c1.5,0,2.8-.4,3.8-1.1,1-.7,1.5-1.9,1.5-3.6s-.2-1.7-.5-2.3c-.3-.6-.8-1.1-1.3-1.4-.6-.3-1.2-.6-1.9-.7-.7-.1-1.5-.2-2.2-.2h-8.1v9.2h8.8,0ZM17.9,44.6c.9,0,1.7,0,2.4-.3.8-.2,1.5-.4,2-.8.6-.4,1.1-.9,1.4-1.6.4-.7.5-1.5.5-2.5,0-2-.6-3.5-1.7-4.4-1.1-.9-2.6-1.3-4.5-1.3h-9.4v10.8h9.2s0,0,0,0h0Z"/>
  </g>
</svg>