<?xml version="1.0" encoding="UTF-8"?>
<svg id="Layer_1" xmlns="http://www.w3.org/2000/svg" version="1.1" viewBox="0 0 140.1 159.2">
  <!-- Generator: Adobe Illustrator 29.1.0, SVG Export Plug-In . SVG Version: 2.1.0 Build 142)  -->
  <defs>
    <style>
      .st0 {
        fill: #fff;
      }
    </style>
  </defs>
  <path class="st0" d="M53,41.7c-12.7-2.1-25.5,3-34.7,11.7C8.4,62.7,3.1,75.8,1.1,89c-1.1,6.9-1.4,14.1-.9,21.1s2.3,13.4,6,19.2c6.5,10.1,17.2,16.5,28.1,20.9,6.4,2.6,13,4.7,19.7,6.3,7.3,1.8,14.9,2.9,22.4,2.5,12.5-.6,23.9-5.8,32.6-14.8,8-8.2,13.4-19,15.7-30.2,2.5-12.2,1.3-25-3.2-36.6-4.7-12.2-12.8-23.1-23.7-30.5s-23.9-11-36.8-10.4c-3.2.2-6.3.6-9.4,1.3-1.9.4-1.1,3.3.8,2.9,12.2-2.7,25.1-.9,36.3,4.5s20.3,14.2,26.2,25.1,8.7,22.8,7.9,34.9c-.7,10.9-4.5,21.6-10.8,30.5-6.3,8.9-14.9,15.7-25.3,18.6-14,3.9-28.9.7-42.4-3.6-10.8-3.5-21.8-8.2-30-16.2-4-3.9-7.2-8.5-9-13.7-2.3-6.7-2.6-13.9-2.3-20.9.5-13,3.5-26.2,10.9-37,6.7-9.7,17.6-17.2,29.5-18.5,2.9-.3,5.8-.3,8.7.2,1.9.3,2.7-2.6.8-2.9h0Z"/>
  <path class="st0" d="M28.5,90c1.9,0,1.9-3,0-3s-1.9,3,0,3h0Z"/>
  <path class="st0" d="M96.3,111.4c1.9,0,1.9-3,0-3s-1.9,3,0,3h0Z"/>
  <path class="st0" d="M56.4,87.2c7.9,1.5,15.5,4.9,21.9,9.7.8.6,1.6,1.4,1.6,2.4,0,.7-.5,1.2-.9,1.7-6.3,7.5-13.2,14.4-20.7,20.7-1.4,1.2-3.2,2.3-4.8,1.7,0-11.2,0-22.3,0-33.5"/>
  <path class="st0" d="M96,86.6c-6.5-1-11.1,4.3-13,9.9-1,3-1.7,6.1-2.3,9.2s-1.1,6.4-1.2,9.7c0,6.1,1.7,12.1,6,16.6s10.2,6.9,16.2,8.3c3.4.8,6.8,1.2,10.2,1.6s7,.7,10.3-.4c5.6-1.8,10.6-6.7,13.8-11.5,3.5-5.2,4.8-11.3,3.3-17.5-1.3-5.4-4.2-10.4-7.9-14.5-8.2-9-20.6-13.7-32.7-11.9-1.9.3-1.1,3.2.8,2.9,9.3-1.4,19.1,1.8,26.3,7.9,7.5,6.3,13.7,17.1,10,26.9-1.8,4.9-5.7,9.2-9.9,12.3-2.5,1.8-5.2,3-8.3,3.2s-6.3-.4-9.3-.8c-5.8-.8-11.6-2-16.6-5.1-4.6-2.9-7.8-7.1-8.9-12.5-1.2-6.2.2-12.8,1.6-18.8.7-3,1.4-6,3.2-8.6,1.6-2.4,4.4-4.4,7.4-3.9,1.9.3,2.7-2.6.8-2.9h0Z"/>
  <path class="st0" d="M37.7,54.8c-6.6,0-13.3-.3-20,0-2.7,0-5.3.7-7.4,2.6-1.8,1.6-2.8,3.9-3.7,6.1-4.1,10.3-8,22.8-2.8,33.4,2,4.2,5.5,7.8,10,9.4,2.8,1,5.9,1.1,8.9,1.1s6,0,8.9-.6c5.4-1.1,9.6-4.3,12.9-8.7s5.8-9.5,7.6-14.6c2-5.7,2.6-12.4-.5-17.8s-9.4-6.8-14.4-9.9c-1.6-1-3.2,1.6-1.5,2.6,3.9,2.4,8.8,3.5,12,7s3.7,9,2.7,13.5c-1.1,5.1-3.5,10-6.2,14.4-2.3,3.9-5.3,7.7-9.6,9.6-2.4,1.1-5.1,1.4-7.7,1.6s-5.4.2-8.1,0c-4.6-.4-8.5-2.7-11-6.6-5.9-9.1-2.8-20.2.5-29.6.8-2.4,1.6-4.9,3-7,1.6-2.3,3.8-3.2,6.6-3.2,6.6-.2,13.3,0,20,0,1.9,0,1.9-3,0-3h0Z"/>
  <path class="st0" d="M52,80.1c11.6-1.1,25.4.8,31.8,11.9,1,1.7,3.6.2,2.6-1.5-7-12-21.7-14.5-34.4-13.4-1.9.2-1.9,3.2,0,3h0Z"/>
  <path class="st0" d="M52.7,42c-.3-5.8-1.8-11.4-4.3-16.5-.9-1.7-3.5-.2-2.6,1.5,2.3,4.7,3.7,9.8,3.9,15,0,1.9,3.1,1.9,3,0h0Z"/>
  <path class="st0" d="M55.2,38.8c1.9-8.2,5.2-16,9.5-23.1,1-1.6-1.6-3.2-2.6-1.5-4.5,7.4-7.9,15.4-9.9,23.8-.4,1.9,2.5,2.7,2.9.8h0Z"/>
</svg>